<?xml version="1.0" encoding="utf-8"?>
<!-- Generator: Adobe Illustrator 27.2.0, SVG Export Plug-In . SVG Version: 6.00 Build 0)  -->
<svg version="1.1" id="Layer_1" xmlns="http://www.w3.org/2000/svg" xmlns:xlink="http://www.w3.org/1999/xlink" x="0px" y="0px"
	 width="96.5px" height="96.5px" viewBox="0 0 96.5 96.5" style="enable-background:new 0 0 96.5 96.5;" xml:space="preserve">
<style type="text/css">
	.st0{fill:#F7941D;}
</style>
<path class="st0" d="M48.2,0C21.7,0,0,21.7,0,48.2s21.7,48.2,48.2,48.2c26.5,0,48.2-21.7,48.2-48.2S74.8,0,48.2,0z M33.2,32.2
	c2-4.4,7.7-7.4,15.3-7.4c9.1,0,16.2,5.1,16.2,12.7c0,4.7-2.1,7.2-6.8,10.1c-2.2,1.3-4.2,2.7-4.7,4.4c-0.1,0.1-0.1,0.3-0.1,0.5
	c-0.5,2.1-2.8,3.6-6.1,3.6c-4.2,0-6.6-1.7-6.6-5v-0.2c0-3,2.1-5,5.2-7.2c3.4-2.3,5.2-3.6,5.2-5.5c0-1.7-1.2-2.8-3-2.8
	c-1.4,0-2.4,0.5-3.9,1.9c-1.2,1.1-2.4,2.6-5.4,2.6c-3.8,0-5.9-2.2-5.9-5C32.5,34,32.8,33.1,33.2,32.2z M40.2,65.2
	c0-3.6,2.9-5.9,6.8-5.9c3.9,0,6.7,2.3,6.7,5.9c0,3.7-2.8,5.9-6.7,5.9C43.1,71,40.2,68.8,40.2,65.2z"/>
</svg>
