<?xml version="1.0" encoding="utf-8"?>
<!-- Generator: Adobe Illustrator 27.2.0, SVG Export Plug-In . SVG Version: 6.00 Build 0)  -->
<svg version="1.1" id="Layer_1" xmlns="http://www.w3.org/2000/svg" xmlns:xlink="http://www.w3.org/1999/xlink" x="0px" y="0px"
	 width="96.5px" height="96.5px" viewBox="0 0 96.5 96.5" style="enable-background:new 0 0 96.5 96.5;" xml:space="preserve">
<style type="text/css">
	.st0{fill:#ED1C24;}
</style>
<path class="st0" d="M48.2,0C21.7,0,0,21.7,0,48.2s21.7,48.2,48.2,48.2s48.2-21.7,48.2-48.2S74.8,0,48.2,0z M39.7,65
	c-1.1,1.1-2.5,1.7-4.2,1.7c-3.2,0-5.7-2.5-5.7-5.7c0-1.4,0.6-2.8,1.7-3.9l8.7-8.7l-8.7-8.7c-1.1-1.1-1.7-2.5-1.7-3.9
	c0-3.2,2.5-5.7,5.7-5.7c1.7,0,3,0.5,4.2,1.6l8.6,8.6l8.7-8.6c1.1-1.1,2.5-1.7,4.2-1.7c3.2,0,5.6,2.5,5.6,5.7c0,1.4-0.6,2.8-1.7,3.9
	l-8.7,8.8L65,57c1.1,1.1,1.7,2.5,1.7,3.9c0,3.2-2.5,5.7-5.7,5.7c-1.7,0-3.1-0.5-4.2-1.7l-8.6-8.5L39.7,65z"/>
</svg>
