<?xml version="1.0" encoding="utf-8"?>
<!-- Generator: Adobe Illustrator 27.0.1, SVG Export Plug-In . SVG Version: 6.00 Build 0)  -->
<svg version="1.2" baseProfile="tiny" id="Layer_1" xmlns="http://www.w3.org/2000/svg" xmlns:xlink="http://www.w3.org/1999/xlink"
	 x="0px" y="0px" viewBox="0 0 92.8 18" overflow="visible" xml:space="preserve">
<g>
	<path fill="#2BB673" d="M27.7,7.6c0,0.6-0.3,0.9-1,0.9h-0.9V6.7h0.9C27.4,6.7,27.7,7,27.7,7.6z"/>
	<path fill="#2BB673" d="M34.9,7.3L34,10.1h1.8L34.9,7.3z M34.9,7.3L34,10.1h1.8L34.9,7.3z M34.9,7.3L34,10.1h1.8L34.9,7.3z
		 M34.9,7.3L34,10.1h1.8L34.9,7.3z M86.8,0H6C2.7,0,0,2.7,0,6v6c0,3.3,2.7,6,6,6h80.8c3.3,0,6-2.7,6-6V6C92.8,2.7,90.1,0,86.8,0z
		 M29.8,9c-0.2,0.4-0.6,0.8-1.1,1c-0.5,0.2-1.1,0.4-1.7,0.4h-1.2v2.9h-2.4V4.8H27c0.7,0,1.2,0.1,1.7,0.4c0.5,0.2,0.8,0.6,1.1,1
		C30,6.6,30.1,7,30.1,7.6C30.1,8.1,30,8.6,29.8,9z M36.9,13.2l-0.5-1.4h-3L33,13.2h-2.5l3.1-8.5h2.7l3.1,8.5H36.9z M46.1,12
		c-0.2,0.4-0.6,0.7-1.1,1s-1,0.3-1.7,0.3c-1,0-1.8-0.2-2.4-0.7c-0.6-0.5-1-1.1-1-2h2.5c0,0.3,0.1,0.5,0.3,0.6
		c0.1,0.1,0.3,0.2,0.6,0.2c0.2,0,0.4-0.1,0.5-0.2c0.1-0.1,0.2-0.3,0.2-0.5c0-0.2-0.1-0.4-0.3-0.6c-0.2-0.1-0.6-0.3-1.1-0.5
		c-0.5-0.2-1-0.4-1.3-0.5c-0.3-0.2-0.6-0.4-0.9-0.8c-0.2-0.3-0.4-0.8-0.4-1.3s0.1-1,0.4-1.4c0.3-0.4,0.7-0.7,1.1-0.9
		c0.5-0.2,1-0.3,1.6-0.3c1,0,1.8,0.2,2.4,0.7c0.6,0.5,0.9,1.1,0.9,1.9h-2.5c0-0.3-0.1-0.5-0.2-0.6c-0.2-0.1-0.3-0.2-0.6-0.2
		c-0.2,0-0.3,0.1-0.4,0.2c-0.1,0.1-0.2,0.2-0.2,0.4c0,0.2,0.1,0.3,0.2,0.4c0.1,0.1,0.3,0.2,0.5,0.3c0.2,0.1,0.5,0.2,0.8,0.3
		c0.5,0.2,1,0.4,1.3,0.6c0.3,0.2,0.7,0.4,0.9,0.8c0.2,0.3,0.4,0.7,0.4,1.2S46.4,11.6,46.1,12z M53.6,12c-0.2,0.4-0.6,0.7-1.1,1
		s-1,0.3-1.7,0.3c-1,0-1.8-0.2-2.4-0.7c-0.6-0.5-1-1.1-1-2h2.5c0,0.3,0.1,0.5,0.3,0.6c0.1,0.1,0.3,0.2,0.6,0.2
		c0.2,0,0.4-0.1,0.5-0.2c0.1-0.1,0.2-0.3,0.2-0.5c0-0.2-0.1-0.4-0.3-0.6c-0.2-0.1-0.6-0.3-1.1-0.5c-0.5-0.2-1-0.4-1.3-0.5
		c-0.3-0.2-0.6-0.4-0.9-0.8c-0.2-0.3-0.4-0.8-0.4-1.3s0.1-1,0.4-1.4c0.3-0.4,0.7-0.7,1.1-0.9c0.5-0.2,1-0.3,1.6-0.3
		c1,0,1.8,0.2,2.4,0.7c0.6,0.5,0.9,1.1,0.9,1.9h-2.5c0-0.3-0.1-0.5-0.2-0.6c-0.2-0.1-0.3-0.2-0.6-0.2c-0.2,0-0.3,0.1-0.4,0.2
		c-0.1,0.1-0.2,0.2-0.2,0.4c0,0.2,0.1,0.3,0.2,0.4c0.1,0.1,0.3,0.2,0.5,0.3C50.7,7.9,51,8,51.3,8.1c0.5,0.2,1,0.4,1.3,0.6
		c0.3,0.2,0.7,0.4,0.9,0.8c0.2,0.3,0.4,0.7,0.4,1.2S53.8,11.6,53.6,12z M60.4,6.7h-3.1V8h2.7v1.8h-2.7v1.5h3.1v1.9H55V4.8h5.4V6.7z
		 M68.8,11.2c-0.4,0.6-0.9,1.1-1.5,1.5c-0.7,0.4-1.4,0.5-2.3,0.5h-3.3V4.8H65c0.9,0,1.7,0.2,2.3,0.5c0.7,0.3,1.2,0.8,1.5,1.5
		c0.4,0.6,0.5,1.4,0.5,2.2C69.4,9.8,69.2,10.5,68.8,11.2z M64.8,6.8H64v4.3h0.8c0.7,0,1.2-0.2,1.6-0.6C66.8,10.2,67,9.7,67,9
		c0-0.7-0.2-1.2-0.6-1.6C66,7,65.5,6.8,64.8,6.8z M34,10.1h1.8l-0.9-2.7L34,10.1z M34.9,7.3L34,10.1h1.8L34.9,7.3z M34.9,7.3
		L34,10.1h1.8L34.9,7.3z M34.9,7.3L34,10.1h1.8L34.9,7.3z M34.9,7.3L34,10.1h1.8L34.9,7.3z"/>
</g>
</svg>
