<?xml version="1.0" encoding="utf-8"?>
<!-- Generator: Adobe Illustrator 27.1.1, SVG Export Plug-In . SVG Version: 6.00 Build 0)  -->
<svg version="1.1" id="Layer_1" xmlns="http://www.w3.org/2000/svg" xmlns:xlink="http://www.w3.org/1999/xlink" x="0px" y="0px"
	 width="65px" height="20px" viewBox="0 0 65 20" style="enable-background:new 0 0 65 20;" xml:space="preserve">
<style type="text/css">
	.st0{clip-path:url(#SVGID_00000057142136773845042770000000434361608988325533_);}
	.st1{fill:#97CA00;}
	.st2{fill:url(#SVGID_00000096779913193001392100000004003757308806280378_);}
	.st3{fill:#FFFFFF;}
</style>
<g>
	<defs>
		<path id="SVGID_1_" d="M3,0h59c1.7,0,3,1.3,3,3v14c0,1.7-1.3,3-3,3H3c-1.7,0-3-1.3-3-3V3C0,1.3,1.3,0,3,0z"/>
	</defs>
	<clipPath id="SVGID_00000000197999976290472550000013435072244772304787_">
		<use xlink:href="#SVGID_1_"  style="overflow:visible;"/>
	</clipPath>
	<g style="clip-path:url(#SVGID_00000000197999976290472550000013435072244772304787_);">
		<rect y="0" class="st1" width="65" height="20"/>
		
			<linearGradient id="SVGID_00000165953579551264765610000011292212542594275999_" gradientUnits="userSpaceOnUse" x1="-30.0231" y1="26.7501" x2="-30.0231" y2="25.7501" gradientTransform="matrix(65 0 0 -20 1984 535)">
			<stop  offset="0" style="stop-color:#BBBBBB;stop-opacity:0.1"/>
			<stop  offset="1" style="stop-color:#000000;stop-opacity:0.1"/>
		</linearGradient>
		<rect y="0" style="fill:url(#SVGID_00000165953579551264765610000011292212542594275999_);" width="65" height="20"/>
	</g>
</g>
<g>
	<path class="st3" d="M20.6,10.1c-0.2,0.3-0.4,0.6-0.8,0.7c-0.3,0.2-0.8,0.3-1.2,0.3h-0.7V13H16V7h2.6c0.7,0,1.3,0.2,1.7,0.6
		s0.6,0.9,0.6,1.5C20.9,9.5,20.8,9.8,20.6,10.1z M19,9.1c0-0.4-0.2-0.6-0.6-0.6h-0.5v1.1h0.5C18.8,9.6,19,9.4,19,9.1z"/>
	<path class="st3" d="M25.3,12.1h-2L23,13h-2l2.2-6h2.2l2.2,6h-2L25.3,12.1z M24.9,10.7L24.3,9l-0.5,1.7H24.9z"/>
	<path class="st3" d="M28.6,12.6c-0.5-0.3-0.7-0.8-0.8-1.5h2c0,0.3,0.2,0.5,0.5,0.5c0.1,0,0.2,0,0.3-0.1c0.1,0,0.1-0.1,0.1-0.2
		c0-0.1-0.1-0.3-0.2-0.3c-0.2-0.1-0.4-0.2-0.7-0.3c-0.4-0.1-0.7-0.3-1-0.4c-0.3-0.1-0.5-0.3-0.7-0.6c-0.2-0.2-0.3-0.6-0.3-1
		c0-0.4,0.1-0.7,0.3-1c0.2-0.3,0.5-0.5,0.8-0.6s0.7-0.2,1.2-0.2c0.7,0,1.3,0.2,1.8,0.5c0.4,0.3,0.7,0.8,0.7,1.4h-2
		c0-0.2,0-0.3-0.1-0.4c-0.1-0.1-0.2-0.1-0.3-0.1c-0.1,0-0.1,0-0.2,0.1c-0.1,0.1-0.1,0.1-0.1,0.2c0,0.1,0.1,0.2,0.2,0.3
		s0.4,0.2,0.7,0.3c0.4,0.1,0.7,0.3,0.9,0.4c0.2,0.1,0.5,0.3,0.6,0.5s0.3,0.5,0.3,0.9c0,0.4-0.1,0.7-0.3,1s-0.4,0.5-0.8,0.7
		c-0.3,0.2-0.8,0.2-1.2,0.2C29.7,13.1,29.1,12.9,28.6,12.6z"/>
	<path class="st3" d="M33.9,12.6c-0.5-0.3-0.7-0.8-0.8-1.5h2c0,0.3,0.2,0.5,0.5,0.5c0.1,0,0.2,0,0.3-0.1s0.1-0.1,0.1-0.2
		c0-0.1-0.1-0.3-0.2-0.3c-0.2-0.1-0.4-0.2-0.7-0.3c-0.4-0.1-0.7-0.3-1-0.4c-0.3-0.1-0.5-0.3-0.7-0.6c-0.2-0.2-0.3-0.6-0.3-1
		c0-0.4,0.1-0.7,0.3-1c0.2-0.3,0.5-0.5,0.8-0.6s0.7-0.2,1.2-0.2c0.7,0,1.3,0.2,1.8,0.5c0.4,0.3,0.7,0.8,0.7,1.4h-2
		c0-0.2,0-0.3-0.1-0.4c-0.1-0.1-0.2-0.1-0.3-0.1c-0.1,0-0.1,0-0.2,0.1c-0.1,0.1-0.1,0.1-0.1,0.2c0,0.1,0.1,0.2,0.2,0.3
		s0.4,0.2,0.7,0.3c0.4,0.1,0.7,0.3,0.9,0.4c0.2,0.1,0.5,0.3,0.6,0.5s0.3,0.5,0.3,0.9c0,0.4-0.1,0.7-0.3,1s-0.4,0.5-0.8,0.7
		c-0.3,0.2-0.8,0.2-1.2,0.2C35,13.1,34.4,12.9,33.9,12.6z"/>
	<path class="st3" d="M40.6,8.5v0.7h1.9v1.4h-1.9v0.9h2.1V13h-4V7h4v1.5H40.6z"/>
	<path class="st3" d="M47.6,7.4C48,7.6,48.4,8,48.7,8.5S49,9.4,49,10c0,0.6-0.1,1.1-0.4,1.5s-0.6,0.8-1.1,1.1s-1,0.4-1.7,0.4h-2.5V7
		h2.5C46.5,7,47.1,7.1,47.6,7.4z M46.8,11c0.2-0.2,0.4-0.6,0.4-1S47,9.2,46.8,9c-0.2-0.2-0.6-0.3-1-0.3h-0.5v2.7h0.5
		C46.2,11.3,46.5,11.2,46.8,11z"/>
</g>
</svg>
