<?xml version="1.0" encoding="utf-8"?>
<!-- Generator: Adobe Illustrator 27.1.1, SVG Export Plug-In . SVG Version: 6.00 Build 0)  -->
<svg version="1.1" id="Layer_1" xmlns="http://www.w3.org/2000/svg" xmlns:xlink="http://www.w3.org/1999/xlink" x="0px" y="0px"
	 width="65px" height="20px" viewBox="0 0 65 20" style="enable-background:new 0 0 65 20;" xml:space="preserve">
<style type="text/css">
	.st0{fill:#FF9933;}
	.st1{clip-path:url(#SVGID_00000032637571828547265070000008036229431269390233_);}
	.st2{fill:#FFFFFF;}
</style>
<g>
	<g>
		<path id="SVGID_1_" class="st0" d="M3,0h59c1.7,0,3,1.3,3,3v14c0,1.7-1.3,3-3,3H3c-1.7,0-3-1.3-3-3V3C0,1.3,1.3,0,3,0z"/>
	</g>
	<g>
		<defs>
			<path id="SVGID_00000036217214610808533270000016836716324410795448_" d="M3,0h59c1.7,0,3,1.3,3,3v14c0,1.7-1.3,3-3,3H3
				c-1.7,0-3-1.3-3-3V3C0,1.3,1.3,0,3,0z"/>
		</defs>
		<clipPath id="SVGID_00000155110636484931457190000014016646835817170617_">
			<use xlink:href="#SVGID_00000036217214610808533270000016836716324410795448_"  style="overflow:visible;"/>
		</clipPath>
		<g style="clip-path:url(#SVGID_00000155110636484931457190000014016646835817170617_);">
			<rect class="st0" width="0" height="20"/>
			<rect class="st0" width="65" height="20"/>
			<rect class="st0" width="65" height="20"/>
		</g>
	</g>
</g>
<g>
	<path class="st2" d="M2.8,7.2v3.2c0,0.3,0.1,0.5,0.2,0.6c0.1,0.2,0.3,0.2,0.6,0.2s0.4-0.1,0.6-0.2c0.1-0.2,0.2-0.4,0.2-0.6V7.2h1.8
		v3.2c0,0.5-0.1,1-0.3,1.4c-0.2,0.4-0.5,0.7-0.9,0.9c-0.4,0.2-0.8,0.3-1.3,0.3s-0.9-0.1-1.3-0.3s-0.7-0.5-0.9-0.8
		c-0.2-0.4-0.3-0.8-0.3-1.4V7.2H2.8z"/>
	<path class="st2" d="M12.2,12.8h-1.8L8.6,10v2.8H6.8V7.2h1.8l1.9,2.9V7.2h1.8V12.8z"/>
	<path class="st2" d="M16.9,7.5c0.4,0.2,0.8,0.6,1,1c0.2,0.4,0.4,0.9,0.4,1.4c0,0.5-0.1,1-0.4,1.4c-0.2,0.4-0.6,0.8-1,1
		c-0.4,0.2-1,0.4-1.5,0.4H13V7.2h2.3C15.9,7.2,16.5,7.3,16.9,7.5z M16.1,10.9c0.2-0.2,0.3-0.5,0.3-0.9c0-0.4-0.1-0.7-0.3-0.9
		s-0.5-0.3-0.9-0.3h-0.4v2.5h0.4C15.6,11.2,15.9,11.1,16.1,10.9z"/>
	<path class="st2" d="M20.7,8.6v0.7h1.7v1.3h-1.7v0.8h2v1.4h-3.7V7.2h3.7v1.4H20.7z"/>
	<path class="st2" d="M27.7,7.2v1.4h-1.5v4.2h-1.8V8.6H23V7.2H27.7z"/>
	<path class="st2" d="M30,8.6v0.7h1.7v1.3H30v0.8h2v1.4h-3.7V7.2H32v1.4H30z"/>
	<path class="st2" d="M35.5,12.8l-1.1-2h0v2h-1.8V7.2h2.6c0.5,0,0.8,0.1,1.2,0.2c0.3,0.2,0.6,0.4,0.7,0.7c0.2,0.3,0.2,0.6,0.2,0.9
		c0,0.4-0.1,0.7-0.3,1s-0.5,0.5-0.9,0.6l1.2,2.2H35.5z M34.4,9.6h0.7c0.2,0,0.3,0,0.4-0.1s0.1-0.2,0.1-0.4c0-0.1,0-0.3-0.1-0.3
		c-0.1-0.1-0.2-0.1-0.4-0.1h-0.7V9.6z"/>
	<path class="st2" d="M44.7,7.2v5.6h-1.8V10l-0.9,2.8h-1.5L39.7,10v2.8h-1.8V7.2h2.2l1.2,3.4l1.2-3.4H44.7z"/>
	<path class="st2" d="M47.3,7.2v5.6h-1.8V7.2H47.3z"/>
	<path class="st2" d="M53.4,12.8h-1.8L49.8,10v2.8H48V7.2h1.8l1.9,2.9V7.2h1.8V12.8z"/>
	<path class="st2" d="M56,8.6v0.7h1.7v1.3H56v0.8h2v1.4h-3.7V7.2H58v1.4H56z"/>
	<path class="st2" d="M62.5,7.5c0.4,0.2,0.8,0.6,1,1c0.2,0.4,0.4,0.9,0.4,1.4c0,0.5-0.1,1-0.4,1.4s-0.6,0.8-1,1
		c-0.4,0.2-1,0.4-1.5,0.4h-2.3V7.2H61C61.6,7.2,62.1,7.3,62.5,7.5z M61.8,10.9c0.2-0.2,0.3-0.5,0.3-0.9c0-0.4-0.1-0.7-0.3-0.9
		c-0.2-0.2-0.5-0.3-0.9-0.3h-0.4v2.5h0.4C61.2,11.2,61.5,11.1,61.8,10.9z"/>
</g>
</svg>
