<?xml version="1.0" encoding="utf-8"?>
<!-- Generator: Adobe Illustrator 27.0.1, SVG Export Plug-In . SVG Version: 6.00 Build 0)  -->
<svg version="1.2" baseProfile="tiny" id="Layer_1" xmlns="http://www.w3.org/2000/svg" xmlns:xlink="http://www.w3.org/1999/xlink"
	 x="0px" y="0px" viewBox="0 0 92.8 18" overflow="visible" xml:space="preserve">
<g>
	<path fill="#F15A29" d="M25.6,7.3C25.2,7,24.6,6.8,24,6.8h-0.8v4.3H24c0.7,0,1.2-0.2,1.6-0.6c0.4-0.4,0.6-0.9,0.6-1.6
		C26.2,8.2,26,7.7,25.6,7.3z M25.6,7.3C25.2,7,24.6,6.8,24,6.8h-0.8v4.3H24c0.7,0,1.2-0.2,1.6-0.6c0.4-0.4,0.6-0.9,0.6-1.6
		C26.2,8.2,26,7.7,25.6,7.3z M25.6,7.3C25.2,7,24.6,6.8,24,6.8h-0.8v4.3H24c0.7,0,1.2-0.2,1.6-0.6c0.4-0.4,0.6-0.9,0.6-1.6
		C26.2,8.2,26,7.7,25.6,7.3z M25.6,7.3C25.2,7,24.6,6.8,24,6.8h-0.8v4.3H24c0.7,0,1.2-0.2,1.6-0.6c0.4-0.4,0.6-0.9,0.6-1.6
		C26.2,8.2,26,7.7,25.6,7.3z M25.6,7.3C25.2,7,24.6,6.8,24,6.8h-0.8v4.3H24c0.7,0,1.2-0.2,1.6-0.6c0.4-0.4,0.6-0.9,0.6-1.6
		C26.2,8.2,26,7.7,25.6,7.3z M54.2,6.9c-0.2-0.1-0.4-0.2-0.7-0.2h-1.2v1.8h1.2c0.3,0,0.6-0.1,0.7-0.2c0.2-0.2,0.2-0.4,0.2-0.7
		S54.4,7.1,54.2,6.9z M54.2,6.9c-0.2-0.1-0.4-0.2-0.7-0.2h-1.2v1.8h1.2c0.3,0,0.6-0.1,0.7-0.2c0.2-0.2,0.2-0.4,0.2-0.7
		S54.4,7.1,54.2,6.9z M25.6,7.3C25.2,7,24.6,6.8,24,6.8h-0.8v4.3H24c0.7,0,1.2-0.2,1.6-0.6c0.4-0.4,0.6-0.9,0.6-1.6
		C26.2,8.2,26,7.7,25.6,7.3z M25.6,7.3C25.2,7,24.6,6.8,24,6.8h-0.8v4.3H24c0.7,0,1.2-0.2,1.6-0.6c0.4-0.4,0.6-0.9,0.6-1.6
		C26.2,8.2,26,7.7,25.6,7.3z M54.2,6.9c-0.2-0.1-0.4-0.2-0.7-0.2h-1.2v1.8h1.2c0.3,0,0.6-0.1,0.7-0.2c0.2-0.2,0.2-0.4,0.2-0.7
		S54.4,7.1,54.2,6.9z M54.2,6.9c-0.2-0.1-0.4-0.2-0.7-0.2h-1.2v1.8h1.2c0.3,0,0.6-0.1,0.7-0.2c0.2-0.2,0.2-0.4,0.2-0.7
		S54.4,7.1,54.2,6.9z M25.6,7.3C25.2,7,24.6,6.8,24,6.8h-0.8v4.3H24c0.7,0,1.2-0.2,1.6-0.6c0.4-0.4,0.6-0.9,0.6-1.6
		C26.2,8.2,26,7.7,25.6,7.3z M86.8,0H6C2.7,0,0,2.7,0,6v6c0,3.3,2.7,6,6,6h80.8c3.3,0,6-2.7,6-6V6C92.8,2.7,90.1,0,86.8,0z
		 M10.3,9.6c0,0.8-0.2,1.4-0.5,2c-0.3,0.5-0.8,1-1.3,1.2c-0.6,0.3-1.2,0.4-1.9,0.4c-0.7,0-1.3-0.1-1.9-0.4c-0.5-0.3-1-0.7-1.3-1.2
		C3.2,11.1,3,10.4,3,9.6V4.7h2.3v4.9c0,0.5,0.1,0.8,0.3,1.1c0.2,0.2,0.5,0.4,1,0.4c0.4,0,0.8-0.1,1-0.4c0.2-0.2,0.3-0.6,0.3-1V4.7
		h2.4V9.6z M19.4,13.2h-2.4L14,8.5v4.7h-2.3V4.7H14l3.1,4.8V4.7h2.4V13.2z M28,11.1c-0.4,0.6-0.9,1.1-1.5,1.5
		c-0.7,0.4-1.4,0.5-2.3,0.5h-3.3V4.7h3.3c0.9,0,1.7,0.2,2.3,0.5c0.7,0.3,1.2,0.8,1.5,1.5c0.4,0.6,0.5,1.4,0.5,2.2
		C28.5,9.8,28.4,10.5,28,11.1z M35,6.6H32V8h2.7v1.8H32v1.5H35v1.9h-5.4V4.7H35V6.6z M42.6,6.6h-2.3v6.6h-2.4V6.6h-2.2V4.7h6.8V6.6z
		 M48.8,6.6h-3.1V8h2.7v1.8h-2.7v1.5h3.1v1.9h-5.4V4.7h5.4V6.6z M54.3,13.2l-1.7-3.1h-0.2v3.1H50V4.7h3.7c0.7,0,1.2,0.1,1.7,0.4
		c0.5,0.2,0.8,0.6,1.1,1c0.2,0.4,0.4,0.9,0.4,1.4c0,0.6-0.2,1.1-0.5,1.5c-0.3,0.4-0.8,0.8-1.4,0.9l1.9,3.3H54.3z M67.8,13.2h-2.3
		V8.5l-1.6,4.7h-2l-1.6-4.7v4.7h-2.3V4.7h2.8l2.1,5.5L65,4.7h2.8V13.2z M71.5,13.2h-2.3V4.7h2.3V13.2z M80.7,13.2h-2.4l-3.1-4.7v4.7
		h-2.3V4.7h2.3l3.1,4.8V4.7h2.4V13.2z M89.2,11.1c-0.4,0.6-0.9,1.1-1.5,1.5c-0.7,0.4-1.4,0.5-2.3,0.5H82V4.7h3.3
		c0.9,0,1.7,0.2,2.3,0.5c0.7,0.3,1.2,0.8,1.5,1.5c0.4,0.6,0.5,1.4,0.5,2.2C89.8,9.8,89.6,10.5,89.2,11.1z M85.2,6.8h-0.8v4.3h0.8
		c0.7,0,1.2-0.2,1.6-0.6c0.4-0.4,0.6-0.9,0.6-1.6c0-0.7-0.2-1.2-0.6-1.6C86.4,7,85.9,6.8,85.2,6.8z M53.5,6.7h-1.2v1.8h1.2
		c0.3,0,0.6-0.1,0.7-0.2c0.2-0.2,0.2-0.4,0.2-0.7s-0.1-0.5-0.2-0.7C54.1,6.8,53.8,6.7,53.5,6.7z M24,6.8h-0.8v4.3H24
		c0.7,0,1.2-0.2,1.6-0.6c0.4-0.4,0.6-0.9,0.6-1.6c0-0.7-0.2-1.2-0.6-1.6C25.2,7,24.6,6.8,24,6.8z M25.6,7.3C25.2,7,24.6,6.8,24,6.8
		h-0.8v4.3H24c0.7,0,1.2-0.2,1.6-0.6c0.4-0.4,0.6-0.9,0.6-1.6C26.2,8.2,26,7.7,25.6,7.3z M54.2,6.9c-0.2-0.1-0.4-0.2-0.7-0.2h-1.2
		v1.8h1.2c0.3,0,0.6-0.1,0.7-0.2c0.2-0.2,0.2-0.4,0.2-0.7S54.4,7.1,54.2,6.9z M54.2,6.9c-0.2-0.1-0.4-0.2-0.7-0.2h-1.2v1.8h1.2
		c0.3,0,0.6-0.1,0.7-0.2c0.2-0.2,0.2-0.4,0.2-0.7S54.4,7.1,54.2,6.9z M25.6,7.3C25.2,7,24.6,6.8,24,6.8h-0.8v4.3H24
		c0.7,0,1.2-0.2,1.6-0.6c0.4-0.4,0.6-0.9,0.6-1.6C26.2,8.2,26,7.7,25.6,7.3z M25.6,7.3C25.2,7,24.6,6.8,24,6.8h-0.8v4.3H24
		c0.7,0,1.2-0.2,1.6-0.6c0.4-0.4,0.6-0.9,0.6-1.6C26.2,8.2,26,7.7,25.6,7.3z M54.2,6.9c-0.2-0.1-0.4-0.2-0.7-0.2h-1.2v1.8h1.2
		c0.3,0,0.6-0.1,0.7-0.2c0.2-0.2,0.2-0.4,0.2-0.7S54.4,7.1,54.2,6.9z M54.2,6.9c-0.2-0.1-0.4-0.2-0.7-0.2h-1.2v1.8h1.2
		c0.3,0,0.6-0.1,0.7-0.2c0.2-0.2,0.2-0.4,0.2-0.7S54.4,7.1,54.2,6.9z M25.6,7.3C25.2,7,24.6,6.8,24,6.8h-0.8v4.3H24
		c0.7,0,1.2-0.2,1.6-0.6c0.4-0.4,0.6-0.9,0.6-1.6C26.2,8.2,26,7.7,25.6,7.3z M25.6,7.3C25.2,7,24.6,6.8,24,6.8h-0.8v4.3H24
		c0.7,0,1.2-0.2,1.6-0.6c0.4-0.4,0.6-0.9,0.6-1.6C26.2,8.2,26,7.7,25.6,7.3z M25.6,7.3C25.2,7,24.6,6.8,24,6.8h-0.8v4.3H24
		c0.7,0,1.2-0.2,1.6-0.6c0.4-0.4,0.6-0.9,0.6-1.6C26.2,8.2,26,7.7,25.6,7.3z M25.6,7.3C25.2,7,24.6,6.8,24,6.8h-0.8v4.3H24
		c0.7,0,1.2-0.2,1.6-0.6c0.4-0.4,0.6-0.9,0.6-1.6C26.2,8.2,26,7.7,25.6,7.3z M25.6,7.3C25.2,7,24.6,6.8,24,6.8h-0.8v4.3H24
		c0.7,0,1.2-0.2,1.6-0.6c0.4-0.4,0.6-0.9,0.6-1.6C26.2,8.2,26,7.7,25.6,7.3z"/>
</g>
</svg>
