<?xml version="1.0" encoding="utf-8"?>
<!-- Generator: Adobe Illustrator 27.1.1, SVG Export Plug-In . SVG Version: 6.00 Build 0)  -->
<svg version="1.1" id="Layer_1" xmlns="http://www.w3.org/2000/svg" xmlns:xlink="http://www.w3.org/1999/xlink" x="0px" y="0px"
	 width="65px" height="20px" viewBox="0 0 65 20" style="enable-background:new 0 0 65 20;" xml:space="preserve">
<style type="text/css">
	.st0{clip-path:url(#SVGID_00000080199316296878894210000006772824272283506339_);}
	.st1{fill:#FF9933;}
	.st2{fill:#FFFFFF;}
</style>
<g>
	<defs>
		<path id="SVGID_1_" d="M3,0h59c1.7,0,3,1.3,3,3v14c0,1.7-1.3,3-3,3H3c-1.7,0-3-1.3-3-3V3C0,1.3,1.3,0,3,0z"/>
	</defs>
	<use xlink:href="#SVGID_1_"  style="overflow:visible;fill:#FF9933;"/>
	<clipPath id="SVGID_00000124847695627528055340000015019649528792975271_">
		<use xlink:href="#SVGID_1_"  style="overflow:visible;"/>
	</clipPath>
	<g style="clip-path:url(#SVGID_00000124847695627528055340000015019649528792975271_);">
		<rect x="0" class="st1" width="0" height="20"/>
		<rect x="0" class="st1" width="65" height="20"/>
		<rect x="0" class="st1" width="65" height="20"/>
	</g>
</g>
<g>
	<path class="st2" d="M3.1,7v3.4c0,0.3,0.1,0.5,0.2,0.7c0.1,0.2,0.3,0.2,0.6,0.2s0.5-0.1,0.6-0.2c0.1-0.2,0.2-0.4,0.2-0.7V7h1.9v3.4
		c0,0.6-0.1,1.1-0.4,1.5c-0.2,0.4-0.6,0.7-1,0.9C4.8,12.9,4.3,13,3.8,13s-1-0.1-1.4-0.3s-0.7-0.5-0.9-0.9c-0.2-0.4-0.3-0.9-0.3-1.5
		V7H3.1z"/>
	<path class="st2" d="M13.1,13h-1.9l-2-3v3H7.4V7h1.9l2,3.1V7h1.9V13z"/>
	<path class="st2" d="M18.1,7.3C18.6,7.6,19,8,19.2,8.4c0.3,0.5,0.4,1,0.4,1.5c0,0.6-0.1,1.1-0.4,1.5c-0.3,0.5-0.6,0.8-1.1,1.1
		c-0.5,0.3-1,0.4-1.7,0.4H14V7h2.5C17.1,7,17.7,7.1,18.1,7.3z M17.3,10.9c0.2-0.2,0.4-0.6,0.4-1s-0.1-0.8-0.4-1s-0.6-0.3-1-0.3h-0.5
		v2.7h0.5C16.8,11.3,17.1,11.2,17.3,10.9z"/>
	<path class="st2" d="M22.2,8.5v0.7h1.9v1.4h-1.9v0.8h2.1V13h-4V7h4v1.5H22.2z"/>
	<path class="st2" d="M29.8,7v1.5h-1.6V13h-1.9V8.5h-1.6V7H29.8z"/>
	<path class="st2" d="M32.2,8.5v0.7H34v1.4h-1.9v0.8h2.1V13h-4V7h4v1.5H32.2z"/>
	<path class="st2" d="M38,13l-1.1-2.2h0V13H35V7h2.8c0.5,0,0.9,0.1,1.2,0.3s0.6,0.4,0.8,0.7c0.2,0.3,0.3,0.6,0.3,1
		c0,0.4-0.1,0.8-0.3,1.1c-0.2,0.3-0.5,0.5-1,0.7l1.3,2.3H38z M36.9,9.6h0.7c0.2,0,0.3,0,0.4-0.1c0.1-0.1,0.1-0.2,0.1-0.4
		c0-0.2,0-0.3-0.1-0.4c-0.1-0.1-0.2-0.1-0.4-0.1h-0.7V9.6z"/>
	<path class="st2" d="M47.9,7v6h-1.9v-3l-0.9,3h-1.6l-0.9-3v3h-1.9V7H43l1.3,3.6L45.6,7H47.9z"/>
	<path class="st2" d="M50.7,7v6h-1.9V7H50.7z"/>
	<path class="st2" d="M57.3,13h-1.9l-2-3v3h-1.9V7h1.9l2,3.1V7h1.9V13z"/>
	<path class="st2" d="M62.3,7.3c0.5,0.3,0.8,0.6,1.1,1.1s0.4,1,0.4,1.5c0,0.6-0.1,1.1-0.4,1.5c-0.3,0.5-0.6,0.8-1.1,1.1
		s-1,0.4-1.7,0.4h-2.5V7h2.5C61.3,7,61.8,7.1,62.3,7.3z M61.5,10.9c0.2-0.2,0.4-0.6,0.4-1s-0.1-0.8-0.4-1c-0.2-0.2-0.6-0.3-1-0.3H60
		v2.7h0.5C60.9,11.3,61.2,11.2,61.5,10.9z"/>
</g>
</svg>
