<?xml version="1.0" encoding="utf-8"?>
<!-- Generator: Adobe Illustrator 27.1.1, SVG Export Plug-In . SVG Version: 6.00 Build 0)  -->
<svg version="1.1" id="Layer_1" xmlns="http://www.w3.org/2000/svg" xmlns:xlink="http://www.w3.org/1999/xlink" x="0px" y="0px"
	 width="73.2px" height="73.2px" viewBox="0 0 73.2 73.2" style="enable-background:new 0 0 73.2 73.2;" xml:space="preserve">
<style type="text/css">
	.st0{fill:none;stroke:#FF9933;stroke-width:5.6693;stroke-miterlimit:10;}
	.st1{fill:none;stroke:#FF9933;stroke-width:5.6693;stroke-linecap:round;stroke-linejoin:round;stroke-miterlimit:10;}
</style>
<g>
	<path class="st0" d="M54.6,61.6h-36c-3.9,0-7-3.1-7-7v-36c0-3.9,3.1-7,7-7h36c3.9,0,7,3.1,7,7v36C61.6,58.5,58.5,61.6,54.6,61.6z"
		/>
	<g>
		<g>
			<line class="st1" x1="5.1" y1="36.6" x2="2.8" y2="36.6"/>
			<line class="st1" x1="5.1" y1="22.7" x2="2.8" y2="22.7"/>
			<line class="st1" x1="5.1" y1="43.5" x2="2.8" y2="43.5"/>
			<line class="st1" x1="5.1" y1="29.7" x2="2.8" y2="29.7"/>
			<line class="st1" x1="5.1" y1="50.4" x2="2.8" y2="50.4"/>
		</g>
		<g>
			<line class="st1" x1="70.3" y1="36.6" x2="68.1" y2="36.6"/>
			<line class="st1" x1="70.3" y1="22.7" x2="68.1" y2="22.7"/>
			<line class="st1" x1="70.3" y1="43.5" x2="68.1" y2="43.5"/>
			<line class="st1" x1="70.3" y1="29.7" x2="68.1" y2="29.7"/>
			<line class="st1" x1="70.3" y1="50.4" x2="68.1" y2="50.4"/>
		</g>
	</g>
	<g>
		<g>
			<line class="st1" x1="36.6" y1="68.1" x2="36.6" y2="70.3"/>
			<line class="st1" x1="22.7" y1="68.1" x2="22.7" y2="70.3"/>
			<line class="st1" x1="43.5" y1="68.1" x2="43.5" y2="70.3"/>
			<line class="st1" x1="29.7" y1="68.1" x2="29.7" y2="70.3"/>
			<line class="st1" x1="50.4" y1="68.1" x2="50.4" y2="70.3"/>
		</g>
		<g>
			<line class="st1" x1="36.6" y1="2.8" x2="36.6" y2="5.1"/>
			<line class="st1" x1="22.7" y1="2.8" x2="22.7" y2="5.1"/>
			<line class="st1" x1="43.5" y1="2.8" x2="43.5" y2="5.1"/>
			<line class="st1" x1="29.7" y1="2.8" x2="29.7" y2="5.1"/>
			<line class="st1" x1="50.4" y1="2.8" x2="50.4" y2="5.1"/>
		</g>
	</g>
</g>
</svg>
