<?xml version="1.0" encoding="UTF-8"?>
<svg id="Artwork" xmlns="http://www.w3.org/2000/svg" viewBox="0 0 119.08 34.01">
  <defs>
    <style>
      .cls-1 {
        fill: #faac28;
      }

      .cls-2 {
        fill: #f79918;
      }

      .cls-3 {
        fill: #fff;
      }

      .cls-4 {
        fill: #fff080;
      }

      .cls-5 {
        fill: #ffd364;
      }

      .cls-6 {
        fill: #fdbf47;
      }
    </style>
  </defs>
  <path d="M110.68,0H8.11c-.31,0-.62,0-.93,0-.26,0-.52,0-.78,.01-.57,.01-1.14,.05-1.7,.15-.57,.1-1.1,.27-1.62,.53-.51,.26-.97,.6-1.38,1-.41,.4-.74,.87-1,1.38-.26,.52-.43,1.05-.53,1.62C.06,5.26,.03,5.83,.01,6.4c0,.26,0,.52-.01,.78V26.84c0,.26,0,.52,.01,.78,.02,.57,.05,1.14,.15,1.7,.1,.57,.27,1.1,.53,1.62,.26,.51,.6,.97,1,1.37,.4,.41,.87,.74,1.38,1,.52,.27,1.05,.43,1.62,.54,.57,.1,1.14,.13,1.7,.15,.26,0,.52,0,.78,0,.31,0,.62,0,.93,0H110.68c.31,0,.92,0,1.22,0,.26,0,.53,0,.78,0,.57-.02,1.14-.05,1.7-.15,.57-.1,1.1-.27,1.62-.54,.51-.26,.97-.6,1.38-1,.4-.4,.74-.87,1-1.37,.26-.52,.43-1.05,.53-1.62,.11-.56,.14-1.13,.16-1.7,0-.26,0-.52,0-.78,0-.31,0-.62,0-.93V8.11c0-.31,0-.62,0-.93,0-.26,0-.52,0-.78-.02-.57-.05-1.14-.16-1.7-.1-.57-.27-1.1-.53-1.62-.26-.51-.6-.98-1-1.38-.4-.4-.87-.74-1.38-1-.52-.26-1.05-.43-1.62-.53-.56-.1-1.13-.14-1.7-.15-.26,0-.53,0-.78-.01-.3,0-.92,0-1.22,0h0Z"/>
  <path class="cls-3" d="M110.68,.7c.31,0,.91,0,1.22,0,.21,0,.42,0,.63,0h.14c.44,.01,1.03,.04,1.6,.14,.51,.09,.98,.24,1.42,.47,.44,.23,.85,.52,1.2,.88,.35,.35,.64,.75,.87,1.2,.22,.44,.38,.91,.46,1.43,.1,.53,.13,1.08,.15,1.58,0,.26,0,.52,0,.79,0,.3,0,.61,0,.91V25.9c0,.31,0,.61,0,.93,0,.26,0,.51,0,.76-.02,.52-.05,1.07-.15,1.61-.09,.51-.24,.98-.46,1.41-.24,.45-.53,.85-.88,1.2-.35,.35-.75,.65-1.19,.87-.44,.23-.9,.38-1.43,.47-.55,.1-1.11,.13-1.59,.14-.25,0-.51,0-.77,0-.31,0-.91,0-1.22,0H8.11c-.31,0-.62,0-.93,0-.26,0-.51,0-.76,0-.48-.01-1.05-.04-1.6-.14-.52-.1-.99-.25-1.42-.47-.44-.22-.85-.52-1.2-.88-.35-.34-.64-.74-.87-1.19-.22-.43-.37-.9-.47-1.42-.1-.57-.13-1.15-.14-1.6,0-.18,0-.35,0-.52v-.24s0-.93,0-.93V6.94c0-.17,0-.35,.01-.52,.01-.44,.04-1.03,.14-1.6,.09-.52,.24-.99,.47-1.42,.23-.45,.52-.85,.87-1.2,.35-.35,.76-.65,1.2-.87,.44-.23,.91-.38,1.42-.47,.57-.1,1.15-.13,1.59-.14h.17c.2,0,.4,0,.6,0h.93s102.57,0,102.57,0"/>
  <g>
    <path d="M39.15,23.67h-4.03l-.97,2.86h-1.71l3.82-10.57h1.77l3.82,10.57h-1.74l-.97-2.86Zm-3.61-1.32h3.19l-1.58-4.64h-.04l-1.57,4.64Z"/>
    <path d="M50.08,22.67c0,2.4-1.28,3.93-3.22,3.93-1.1,0-1.97-.49-2.42-1.35h-.04v3.82h-1.58v-10.25h1.53v1.28h.03c.44-.83,1.38-1.36,2.45-1.36,1.96,0,3.24,1.55,3.24,3.93Zm-1.63,0c0-1.56-.81-2.58-2.04-2.58s-2.02,1.05-2.02,2.58,.81,2.59,2.02,2.59c1.23,0,2.04-1.02,2.04-2.59Z"/>
    <path d="M58.56,22.67c0,2.4-1.28,3.93-3.22,3.93-1.1,0-1.97-.49-2.42-1.35h-.04v3.82h-1.58v-10.25h1.53v1.28h.03c.44-.83,1.38-1.36,2.45-1.36,1.96,0,3.24,1.55,3.24,3.93Zm-1.63,0c0-1.56-.81-2.58-2.04-2.58s-2.02,1.05-2.02,2.58,.81,2.59,2.02,2.59c1.23,0,2.04-1.02,2.04-2.59Z"/>
    <path d="M59.83,15.96h1.58v10.57h-1.58V15.96Z"/>
    <path d="M69.64,24.26c-.21,1.4-1.57,2.36-3.32,2.36-2.24,0-3.63-1.5-3.63-3.91s1.4-3.98,3.57-3.98,3.47,1.47,3.47,3.8v.54h-5.44v.1c0,1.32,.83,2.18,2.07,2.18,.88,0,1.57-.42,1.78-1.08h1.5Zm-5.35-2.3h3.85c-.04-1.18-.79-1.96-1.89-1.96s-1.88,.79-1.96,1.96Z"/>
    <path d="M81.25,26.53v-4.68h-5.43v4.68h-1.64V15.96h1.64v4.47h5.43v-4.47h1.64v10.57s-1.64,0-1.64,0Z"/>
    <path d="M84.18,22.67c0-2.42,1.43-3.95,3.65-3.95s3.65,1.52,3.65,3.95-1.41,3.95-3.65,3.95-3.65-1.52-3.65-3.95Zm5.7,0c0-1.66-.76-2.64-2.04-2.64s-2.04,.99-2.04,2.64,.76,2.64,2.04,2.64c1.28,0,2.04-.97,2.04-2.64Z"/>
    <path d="M92.77,18.82h1.51v1.32h.04c.35-.87,1.18-1.41,2.19-1.41,1.07,0,1.85,.55,2.15,1.51h.04c.4-.94,1.3-1.51,2.4-1.51,1.52,0,2.52,1.01,2.52,2.55v5.24h-1.59v-4.87c0-.99-.54-1.56-1.47-1.56s-1.59,.69-1.59,1.66v4.77h-1.55v-4.98c0-.89-.56-1.45-1.46-1.45-.94,0-1.6,.73-1.6,1.72v4.71h-1.58v-7.71h0Z"/>
    <path d="M111.85,24.26c-.21,1.4-1.57,2.36-3.32,2.36-2.24,0-3.63-1.5-3.63-3.91s1.4-3.98,3.57-3.98,3.47,1.47,3.47,3.8v.54h-5.44v.1c0,1.32,.83,2.18,2.07,2.18,.88,0,1.57-.42,1.78-1.08h1.5Zm-5.35-2.3h3.85c-.04-1.18-.79-1.96-1.89-1.96s-1.88,.79-1.96,1.96Z"/>
  </g>
  <g>
    <path d="M34.33,12.54h-.74l-1.37-5.06h.82l.93,3.88h.05l1.06-3.88h.73l1.06,3.88h.05l.93-3.88h.82l-1.37,5.06h-.74l-1.09-3.72h-.05l-1.08,3.72Z"/>
    <path d="M39.08,10.63c0-1.23,.69-1.98,1.81-1.98s1.8,.75,1.8,1.98-.69,1.99-1.8,1.99-1.81-.75-1.81-1.99Zm2.83,0c0-.83-.37-1.31-1.02-1.31s-1.03,.48-1.03,1.31,.37,1.32,1.03,1.32,1.02-.48,1.02-1.32Z"/>
    <path d="M43.7,8.72h.73v.59h.06c.11-.38,.53-.65,1.03-.65,.11,0,.26,.01,.34,.03v.74c-.06-.02-.29-.05-.42-.05-.57,0-.98,.36-.98,.9v2.26h-.76v-3.82Z"/>
    <path d="M49.06,8.72h.89l-1.57,1.64,1.68,2.18h-.93l-1.31-1.68-.33,.32v1.37h-.76V7.23h.76v3.09h.06l1.52-1.59Z"/>
    <path d="M52.11,8.65c.86,0,1.42,.4,1.49,1.07h-.72c-.07-.28-.34-.46-.77-.46s-.74,.2-.74,.5c0,.23,.19,.37,.61,.47l.64,.15c.73,.17,1.07,.48,1.07,1.04,0,.72-.67,1.2-1.58,1.2s-1.5-.41-1.57-1.09h.76c.1,.3,.38,.48,.83,.48s.8-.21,.8-.52c0-.23-.18-.38-.56-.47l-.67-.15c-.73-.17-1.06-.5-1.06-1.07,0-.68,.62-1.15,1.48-1.15Z"/>
    <path d="M60.71,12.54h-.78l-.79-2.81h-.06l-.79,2.81h-.78l-1.05-3.82h.76l.69,2.92h.06l.79-2.92h.72l.79,2.92h.06l.68-2.92h.76l-1.05,3.82Z"/>
    <path d="M62.56,7.59c0-.26,.21-.46,.49-.46s.49,.2,.49,.46-.21,.46-.49,.46-.49-.2-.49-.46Zm.11,1.13h.75v3.82h-.75v-3.82Z"/>
    <path d="M65.66,7.77v.97h.83v.64h-.83v1.97c0,.4,.17,.57,.54,.57,.11,0,.18,0,.29-.02v.63c-.12,.02-.26,.04-.41,.04-.84,0-1.17-.3-1.17-1.03v-2.16h-.61v-.64h.61v-.97h.75Z"/>
    <path d="M67.53,7.23h.75v2.11h.06c.19-.43,.59-.69,1.17-.69,.81,0,1.32,.52,1.32,1.43v2.47h-.75v-2.28c0-.61-.28-.92-.82-.92-.62,0-.96,.39-.96,.97v2.23h-.75V7.23h0Z"/>
  </g>
  <g>
    <path class="cls-2" d="M27.6,14.65c-.09-.07-.9-.71-2.03-1.6h0v-3.65c0-.25-.1-.32-.27-.32h-1.86c-.2,0-.33,.04-.33,.32v1.7h0c-2.68-2.12-5.6-4.42-5.71-4.51-.22-.17-.36-.22-.51-.22s-.29,.05-.51,.22c-.22,.17-9.91,7.82-10.2,8.05-.36,.28-.26,.69,.14,.69h1.89v10.26c0,.66,.27,.93,.9,.93h15.57c.63,0,.9-.26,.9-.93V15.34h1.89c.4,0,.5-.41,.14-.69Zm-3.62,9.51c0,.46-.24,.78-.72,.78H10.51c-.48,0-.72-.32-.72-.78V14.57c0-.56,.24-.91,.52-1.13,.28-.22,5.97-4.71,6.13-4.84s.3-.18,.44-.18,.27,.06,.44,.18c.16,.13,5.85,4.62,6.13,4.84,.28,.22,.52,.57,.52,1.13v9.59Z"/>
    <path class="cls-1" d="M23.46,13.44c-.28-.22-5.97-4.71-6.13-4.84s-.31-.18-.44-.18-.27,.06-.44,.18c-.16,.13-5.85,4.62-6.13,4.84-.28,.22-.52,.57-.52,1.13v9.59c0,.46,.24,.78,.72,.78h12.75c.48,0,.72-.32,.72-.78V14.57c0-.56-.24-.91-.52-1.13Zm-1.07,9.28c0,.43-.24,.63-.6,.63H11.99c-.36,0-.6-.2-.6-.63v-7.49c0-.41,.1-.65,.39-.89,.17-.13,4.63-3.65,4.74-3.75s.25-.14,.36-.14,.24,.05,.36,.14c.12,.09,4.58,3.61,4.74,3.75,.29,.23,.39,.47,.39,.89,0,.39,0,7.19,0,7.49Z"/>
    <path class="cls-6" d="M22,14.35c-.17-.13-4.63-3.65-4.75-3.75-.12-.09-.25-.14-.36-.14s-.24,.05-.36,.14c-.12,.09-4.58,3.61-4.74,3.75-.29,.23-.39,.47-.39,.89v7.49c0,.43,.24,.63,.6,.63h9.8c.35,0,.6-.2,.6-.63v-7.49c0-.41-.1-.65-.39-.89Zm-1.2,6.94c0,.34-.19,.48-.45,.48h-6.91c-.26,0-.45-.13-.45-.48v-5.39c0-.24,0-.43,.26-.64,.17-.14,3.27-2.58,3.36-2.65s.18-.11,.29-.11,.19,.04,.29,.11c.09,.07,3.19,2.52,3.36,2.65,.26,.21,.26,.4,.26,.64,0,.24,0,5.18,0,5.39Z"/>
    <path class="cls-5" d="M20.53,15.26c-.17-.14-3.27-2.58-3.36-2.65s-.19-.11-.29-.11c-.1,0-.19,.04-.29,.11-.09,.07-3.19,2.52-3.36,2.65-.26,.21-.26,.4-.26,.64v5.39c0,.34,.19,.48,.45,.48h6.91c.26,0,.45-.13,.45-.48v-5.39c0-.24,0-.43-.26-.64Zm-1.33,4.59c0,.26-.13,.32-.32,.32h-4c-.19,0-.32-.06-.32-.32v-3.28c0-.17,.07-.35,.23-.48,.08-.07,1.82-1.43,1.88-1.48,.06-.05,.16-.08,.21-.08s.15,.03,.21,.08c.06,.05,1.8,1.41,1.88,1.48,.15,.12,.23,.31,.23,.48,0,.17,0,3.11,0,3.28Z"/>
    <path class="cls-4" d="M16.89,20.17h2c.19,0,.32-.06,.32-.32v-3.28c0-.17-.07-.35-.23-.48-.08-.07-1.82-1.43-1.88-1.48s-.16-.08-.21-.08-.15,.03-.21,.08c-.06,.05-1.8,1.41-1.88,1.48-.15,.12-.23,.31-.23,.48v3.28c0,.26,.13,.32,.32,.32h2Z"/>
  </g>
</svg>