<?xml version="1.0" encoding="utf-8"?>
<!-- Generator: Adobe Illustrator 27.2.0, SVG Export Plug-In . SVG Version: 6.00 Build 0)  -->
<svg version="1.1" id="Layer_1" xmlns="http://www.w3.org/2000/svg" xmlns:xlink="http://www.w3.org/1999/xlink" x="0px" y="0px"
	 width="96.5px" height="96.5px" viewBox="0 0 96.5 96.5" style="enable-background:new 0 0 96.5 96.5;" xml:space="preserve">
<style type="text/css">
	.st0{fill:#39B54A;}
</style>
<path class="st0" d="M48.2,0C21.7,0,0,21.7,0,48.2s21.7,48.2,48.2,48.2c26.5,0,48.2-21.7,48.2-48.2S74.8,0,48.2,0z M43.6,69.6
	c-2.2,0-3.9-1-5.4-2.8L29,55.8c-1.1-1.4-1.6-2.5-1.6-3.9c0-3,2.5-5.5,5.5-5.5c1.7,0,3,0.7,4.3,2.1l6.4,7.7l15.1-24
	c1.3-2.1,2.9-3.1,4.9-3.1c3,0,5.7,2.2,5.7,5.2c0,1.2-0.5,2.4-1.3,3.7L48.9,66.6C47.7,68.5,45.8,69.6,43.6,69.6z"/>
</svg>
